Coordinates
version=1
nRows=28
nColumns=21
inDegrees=yes

Units are S.I. units (second, meters, Newtons, ...)
If the header above contains a line with 'inDegrees', this indicates whether rotational values are in degrees (yes) or radians (no).

endheader
time	sternoclavicular_r2	sternoclavicular_r3	unrotscap_r3	unrotscap_r2	acromioclavicular_r2	acromioclavicular_r3	acromioclavicular_r1	unrothum_r1	unrothum_r3	unrothum_r2	elv_angle	shoulder_elev	shoulder1_r2	shoulder_rot	elbow_flexion	pro_sup	deviation	flexion	wrist_hand_r1	wrist_hand_r3
      3.01507538	     -2.80852349	      1.18955799	     -1.18955799	      2.80852349	     -0.56866888	      4.59578183	      2.06577230	     -2.06577230	     -4.59578183	      0.56866888	     69.93578924	     11.60544295	    -69.93578924	      8.90034679	    106.56182055	     81.34946931	      0.00000000	     -0.00000000	     -0.00000000	      0.00000000
      3.03517588	     -2.80852349	      1.18955799	     -1.18955799	      2.80852349	     -0.56866888	      4.59578183	      2.06577230	     -2.06577230	     -4.59578183	      0.56866888	     69.93578924	     11.60544295	    -69.93578924	      8.90034679	    106.81050990	     81.35046911	      0.00000000	     -0.00000000	     -0.00000000	      0.00000000
      3.05527638	     -2.80852349	      1.18955799	     -1.18955799	      2.80852349	     -0.56866888	      4.59578183	      2.06577230	     -2.06577230	     -4.59578183	      0.56866888	     69.93578924	     11.60544295	    -69.93578924	      8.90034679	    107.05186619	     81.35140985	      0.00000000	     -0.00000000	     -0.00000000	      0.00000000
      3.07537688	     -2.80852349	      1.18955799	     -1.18955799	      2.80852349	     -0.56866888	      4.59578183	      2.06577230	     -2.06577230	     -4.59578183	      0.56866888	     69.93578924	     11.60544295	    -69.93578924	      8.90034679	    107.28589759	     81.35226521	      0.00000000	     -0.00000000	     -0.00000000	      0.00000000
      3.09547739	     -2.80852349	      1.18955799	     -1.18955799	      2.80852349	     -0.56866888	      4.59578183	      2.06577230	     -2.06577230	     -4.59578183	      0.56866888	     69.93578924	     11.60544295	    -69.93578924	      8.90034679	    107.51261677	     81.35300825	      0.00000000	     -0.00000000	     -0.00000000	      0.00000000
      3.11557789	     -2.80852349	      1.18955799	     -1.18955799	      2.80852349	     -0.56866888	      4.59578183	      2.06577230	     -2.06577230	     -4.59578183	      0.56866888	     69.93578924	     11.60544295	    -69.93578924	      8.90034679	    107.73204074	     81.35361413	      0.00000000	     -0.00000000	     -0.00000000	      0.00000000
      3.13567839	     -2.80852349	      1.18955799	     -1.18955799	      2.80852349	     -0.56866888	      4.59578183	      2.06577230	     -2.06577230	     -4.59578183	      0.56866888	     69.93578924	     11.60544295	    -69.93578924	      8.90034679	    107.94419093	     81.35406252	      0.00000000	     -0.00000000	     -0.00000000	      0.00000000
      3.15577889	     -2.80852349	      1.18955799	     -1.18955799	      2.80852349	     -0.56866888	      4.59578183	      2.06577230	     -2.06577230	     -4.59578183	      0.56866888	     69.93578924	     11.60544295	    -69.93578924	      8.90034679	    108.14909335	     81.35433958	      0.00000000	     -0.00000000	     -0.00000000	      0.00000000
      3.17587940	     -2.80852349	      1.18955799	     -1.18955799	      2.80852349	     -0.56866888	      4.59578183	      2.06577230	     -2.06577230	     -4.59578183	      0.56866888	     69.93578924	     11.60544295	    -69.93578924	      8.90034679	    108.34677879	     81.35443900	      0.00000000	     -0.00000000	     -0.00000000	      0.00000000
      3.19597990	     -2.80852349	      1.18955799	     -1.18955799	      2.80852349	     -0.56866888	      4.59578183	      2.06577230	     -2.06577230	     -4.59578183	      0.56866888	     69.93578924	     11.60544295	    -69.93578924	      8.90034679	    108.53728311	     81.35436217	      0.00000000	     -0.00000000	     -0.00000000	      0.00000000
      3.21608040	     -2.80852349	      1.18955799	     -1.18955799	      2.80852349	     -0.56866888	      4.59578183	      2.06577230	     -2.06577230	     -4.59578183	      0.56866888	     69.93578924	     11.60544295	    -69.93578924	      8.90034679	    108.72064744	     81.35411758	      0.00000000	     -0.00000000	     -0.00000000	      0.00000000
      3.23618090	     -2.80852349	      1.18955799	     -1.18955799	      2.80852349	     -0.56866888	      4.59578183	      2.06577230	     -2.06577230	     -4.59578183	      0.56866888	     69.93578924	     11.60544295	    -69.93578924	      8.90034679	    108.89691840	     81.35371969	      0.00000000	     -0.00000000	     -0.00000000	      0.00000000
      3.25628141	     -2.80852349	      1.18955799	     -1.18955799	      2.80852349	     -0.56866888	      4.59578183	      2.06577230	     -2.06577230	     -4.59578183	      0.56866888	     69.93578924	     11.60544295	    -69.93578924	      8.90034679	    109.06614818	     81.35318755	      0.00000000	     -0.00000000	     -0.00000000	      0.00000000
      3.27638191	     -2.80852349	      1.18955799	     -1.18955799	      2.80852349	     -0.56866888	      4.59578183	      2.06577230	     -2.06577230	     -4.59578183	      0.56866888	     69.93578924	     11.60544295	    -69.93578924	      8.90034679	    109.22839460	     81.35254329	      0.00000000	     -0.00000000	     -0.00000000	      0.00000000
      3.29648241	     -2.80852349	      1.18955799	     -1.18955799	      2.80852349	     -0.56866888	      4.59578183	      2.06577230	     -2.06577230	     -4.59578183	      0.56866888	     69.93578924	     11.60544295	    -69.93578924	      8.90034679	    109.38372118	     81.35181073	      0.00000000	     -0.00000000	     -0.00000000	      0.00000000
      3.31658291	     -2.80852349	      1.18955799	     -1.18955799	      2.80852349	     -0.56866888	      4.59578183	      2.06577230	     -2.06577230	     -4.59578183	      0.56866888	     69.93578924	     11.60544295	    -69.93578924	      8.90034679	    109.53219708	     81.35101417	      0.00000000	     -0.00000000	     -0.00000000	      0.00000000
      3.33668342	     -2.80852349	      1.18955799	     -1.18955799	      2.80852349	     -0.56866888	      4.59578183	      2.06577230	     -2.06577230	     -4.59578183	      0.56866888	     69.93578924	     11.60544295	    -69.93578924	      8.90034679	    109.67389711	     81.35017735	      0.00000000	     -0.00000000	     -0.00000000	      0.00000000
      3.35678392	     -2.80852349	      1.18955799	     -1.18955799	      2.80852349	     -0.56866888	      4.59578183	      2.06577230	     -2.06577230	     -4.59578183	      0.56866888	     69.93578924	     11.60544295	    -69.93578924	      8.90034679	    109.80890172	     81.34932270	      0.00000000	     -0.00000000	     -0.00000000	      0.00000000
      3.37688442	     -2.80852349	      1.18955799	     -1.18955799	      2.80852349	     -0.56866888	      4.59578183	      2.06577230	     -2.06577230	     -4.59578183	      0.56866888	     69.93578924	     11.60544295	    -69.93578924	      8.90034679	    109.93729698	     81.34847070	      0.00000000	     -0.00000000	     -0.00000000	      0.00000000
      3.39698492	     -2.80852349	      1.18955799	     -1.18955799	      2.80852349	     -0.56866888	      4.59578183	      2.06577230	     -2.06577230	     -4.59578183	      0.56866888	     69.93578924	     11.60544295	    -69.93578924	      8.90034679	    110.05917456	     81.34763951	      0.00000000	     -0.00000000	     -0.00000000	      0.00000000
      3.41708543	     -2.80852349	      1.18955799	     -1.18955799	      2.80852349	     -0.56866888	      4.59578183	      2.06577230	     -2.06577230	     -4.59578183	      0.56866888	     69.93578924	     11.60544295	    -69.93578924	      8.90034679	    110.17463177	     81.34684470	      0.00000000	     -0.00000000	     -0.00000000	      0.00000000
      3.43718593	     -2.80852349	      1.18955799	     -1.18955799	      2.80852349	     -0.56866888	      4.59578183	      2.06577230	     -2.06577230	     -4.59578183	      0.56866888	     69.93578924	     11.60544295	    -69.93578924	      8.90034679	    110.28377159	     81.34609918	      0.00000000	     -0.00000000	     -0.00000000	      0.00000000
      3.45728643	     -2.80852349	      1.18955799	     -1.18955799	      2.80852349	     -0.56866888	      4.59578183	      2.06577230	     -2.06577230	     -4.59578183	      0.56866888	     69.93578924	     11.60544295	    -69.93578924	      8.90034679	    110.38670267	     81.34541321	      0.00000000	     -0.00000000	     -0.00000000	      0.00000000
      3.47738693	     -2.80852349	      1.18955799	     -1.18955799	      2.80852349	     -0.56866888	      4.59578183	      2.06577230	     -2.06577230	     -4.59578183	      0.56866888	     69.93578924	     11.60544295	    -69.93578924	      8.90034679	    110.48353946	     81.34479449	      0.00000000	     -0.00000000	     -0.00000000	      0.00000000
      3.49748744	     -2.80852349	      1.18955799	     -1.18955799	      2.80852349	     -0.56866888	      4.59578183	      2.06577230	     -2.06577230	     -4.59578183	      0.56866888	     69.93578924	     11.60544295	    -69.93578924	      8.90034679	    110.57440222	     81.34424844	      0.00000000	     -0.00000000	     -0.00000000	      0.00000000
      3.51758794	     -2.80852349	      1.18955799	     -1.18955799	      2.80852349	     -0.56866888	      4.59578183	      2.06577230	     -2.06577230	     -4.59578183	      0.56866888	     69.93578924	     11.60544295	    -69.93578924	      8.90034679	    110.65941711	     81.34377842	      0.00000000	     -0.00000000	     -0.00000000	      0.00000000
      3.53768844	     -2.80852349	      1.18955799	     -1.18955799	      2.80852349	     -0.56866888	      4.59578183	      2.06577230	     -2.06577230	     -4.59578183	      0.56866888	     69.93578924	     11.60544295	    -69.93578924	      8.90034679	    110.73871632	     81.34338610	      0.00000000	     -0.00000000	     -0.00000000	      0.00000000
      3.55778894	     -2.80852349	      1.18955799	     -1.18955799	      2.80852349	     -0.56866888	      4.59578183	      2.06577230	     -2.06577230	     -4.59578183	      0.56866888	     69.93578924	     11.60544295	    -69.93578924	      8.90034679	    110.80973584	     81.36857795	      0.00000000	     -0.00000000	     -0.00000000	      0.00000000
